<?xml version="1.0" encoding="UTF-8" standalone="no"?><!DOCTYPE svg PUBLIC "-//W3C//DTD SVG 1.1//EN" "http://www.w3.org/Graphics/SVG/1.1/DTD/svg11.dtd"><svg width="100%" height="100%" viewBox="0 0 532 768" version="1.1" xmlns="http://www.w3.org/2000/svg" xmlns:xlink="http://www.w3.org/1999/xlink" xml:space="preserve" xmlns:serif="http://www.serif.com/" style="fill-rule:evenodd;clip-rule:evenodd;stroke-linecap:round;stroke-linejoin:round;stroke-miterlimit:1.5;"><rect x="-115.835" y="-168.786" width="1986.99" height="1052.15" style="fill:#fcfbf3;"/><path d="M92.024,84.901c0,-0 43.341,-5.338 39.401,48.573c-3.941,53.911 37.266,45.943 37.266,45.943c0,-0 43.341,-5.337 39.401,48.573c-3.941,53.911 37.267,45.943 37.267,45.943c-0,0 43.341,-5.337 39.4,48.573c-3.941,53.911 37.267,45.943 37.267,45.943c-0,0 43.341,-5.337 39.4,48.573c-3.94,53.911 37.267,45.943 37.267,45.943c0,0 43.341,-5.337 39.4,48.573c-3.94,53.911 37.267,45.943 37.267,45.943c0,0 43.341,-5.337 39.401,48.573c-3.941,53.911 37.266,45.943 37.266,45.943" style="fill:none;stroke:#c63944;stroke-width:20.83px;"/><path d="M46.862,121.535c-0,-0 43.341,-5.338 39.4,48.573c-3.941,53.911 37.267,45.943 37.267,45.943c-0,-0 43.341,-5.338 39.4,48.573c-3.94,53.911 37.267,45.943 37.267,45.943c0,-0 43.341,-5.338 39.4,48.573c-3.94,53.911 37.267,45.943 37.267,45.943c0,-0 43.341,-5.337 39.401,48.573c-3.941,53.911 37.266,45.943 37.266,45.943c0,0 43.341,-5.337 39.401,48.573c-3.941,53.911 37.267,45.943 37.267,45.943c-0,0 43.341,-5.337 39.4,48.573c-3.941,53.911 37.267,45.943 37.267,45.943" style="fill:none;stroke:#cd515b;stroke-width:20.83px;"/><path d="M2.774,157.296c0,0 43.341,-5.337 39.401,48.574c-3.941,53.91 37.267,45.942 37.267,45.942c-0,0 43.341,-5.337 39.4,48.574c-3.941,53.91 37.267,45.942 37.267,45.942c-0,0 43.341,-5.337 39.4,48.574c-3.94,53.91 37.267,45.943 37.267,45.943c0,-0 43.341,-5.338 39.4,48.573c-3.94,53.91 37.267,45.943 37.267,45.943c0,-0 43.341,-5.338 39.401,48.573c-3.941,53.91 37.266,45.943 37.266,45.943c0,-0 43.341,-5.338 39.401,48.573c-3.941,53.911 37.267,45.943 37.267,45.943" style="fill:none;stroke:#d56d76;stroke-width:20.83px;"/><path d="M-39.897,191.91c-0,-0 43.341,-5.338 39.4,48.573c-3.94,53.91 37.267,45.943 37.267,45.943c0,-0 43.341,-5.338 39.401,48.573c-3.941,53.91 37.266,45.943 37.266,45.943c0,-0 43.341,-5.338 39.401,48.573c-3.941,53.911 37.267,45.943 37.267,45.943c-0,-0 43.34,-5.338 39.4,48.573c-3.941,53.911 37.267,45.943 37.267,45.943c-0,-0 43.341,-5.338 39.4,48.573c-3.94,53.911 37.267,45.943 37.267,45.943c-0,-0 43.341,-5.338 39.4,48.573c-3.94,53.911 37.267,45.943 37.267,45.943" style="fill:none;stroke:#da7e85;stroke-width:20.83px;"/><path d="M-85.06,228.543c0,0 43.341,-5.337 39.401,48.574c-3.941,53.91 37.267,45.942 37.267,45.942c-0,0 43.34,-5.337 39.4,48.574c-3.941,53.91 37.267,45.943 37.267,45.943c-0,-0 43.341,-5.338 39.4,48.573c-3.94,53.91 37.267,45.943 37.267,45.943c-0,-0 43.341,-5.338 39.4,48.573c-3.94,53.91 37.267,45.943 37.267,45.943c0,-0 43.341,-5.338 39.4,48.573c-3.94,53.911 37.267,45.943 37.267,45.943c0,-0 43.341,-5.338 39.401,48.573c-3.941,53.911 37.267,45.943 37.267,45.943" style="fill:none;stroke:#7fc2ca;stroke-width:20.83px;"/><path d="M-129.147,264.305c0,-0 43.341,-5.337 39.4,48.573c-3.94,53.911 37.267,45.943 37.267,45.943c0,0 43.341,-5.337 39.401,48.573c-3.941,53.911 37.266,45.943 37.266,45.943c0,0 43.341,-5.337 39.401,48.573c-3.941,53.911 37.267,45.943 37.267,45.943c-0,0 43.341,-5.337 39.4,48.573c-3.94,53.911 37.267,45.943 37.267,45.943c-0,0 43.341,-5.337 39.4,48.573c-3.94,53.911 37.267,45.943 37.267,45.943c0,0 43.341,-5.337 39.4,48.574c-3.94,53.91 37.267,45.942 37.267,45.942" style="fill:none;stroke:#54aeb8;stroke-width:20.83px;"/><path d="M-169.911,297.371c0,-0 43.341,-5.338 39.401,48.573c-3.941,53.911 37.266,45.943 37.266,45.943c0,-0 43.341,-5.338 39.401,48.573c-3.941,53.911 37.267,45.943 37.267,45.943c-0,-0 43.341,-5.338 39.4,48.573c-3.941,53.911 37.267,45.943 37.267,45.943c-0,0 43.341,-5.337 39.4,48.573c-3.94,53.911 37.267,45.943 37.267,45.943c0,0 43.341,-5.337 39.4,48.573c-3.94,53.911 37.267,45.943 37.267,45.943c0,0 43.341,-5.337 39.401,48.573c-3.941,53.911 37.266,45.943 37.266,45.943" style="fill:none;stroke:#2e9ca9;stroke-width:20.83px;"/><path d="M-215.073,334.005c-0,-0 43.341,-5.338 39.4,48.573c-3.941,53.91 37.267,45.943 37.267,45.943c-0,-0 43.341,-5.338 39.4,48.573c-3.94,53.911 37.267,45.943 37.267,45.943c0,-0 43.341,-5.338 39.4,48.573c-3.94,53.911 37.267,45.943 37.267,45.943c0,-0 43.341,-5.338 39.401,48.573c-3.941,53.911 37.266,45.943 37.266,45.943c0,-0 43.341,-5.337 39.401,48.573c-3.941,53.911 37.267,45.943 37.267,45.943c-0,0 43.341,-5.337 39.4,48.573c-3.941,53.911 37.267,45.943 37.267,45.943" style="fill:none;stroke:#2196a4;stroke-width:20.83px;"/><path d="M-259.161,369.766c0,0 43.341,-5.337 39.401,48.573c-3.941,53.911 37.267,45.943 37.267,45.943c-0,0 43.341,-5.337 39.4,48.573c-3.941,53.911 37.267,45.943 37.267,45.943c-0,0 43.341,-5.337 39.4,48.574c-3.94,53.91 37.267,45.942 37.267,45.942c-0,0 43.341,-5.337 39.4,48.574c-3.94,53.91 37.267,45.943 37.267,45.943c0,-0 43.341,-5.338 39.401,48.573c-3.941,53.91 37.266,45.943 37.266,45.943c0,-0 43.341,-5.338 39.401,48.573c-3.941,53.91 37.267,45.943 37.267,45.943" style="fill:none;stroke:#008696;stroke-width:20.83px;"/><path d="M-367.735,-482.358c0,-0 43.341,-5.338 39.401,48.573c-3.941,53.911 37.266,45.943 37.266,45.943c0,-0 43.341,-5.338 39.401,48.573c-3.941,53.911 37.267,45.943 37.267,45.943c-0,0 43.341,-5.337 39.4,48.573c-3.941,53.911 37.267,45.943 37.267,45.943c-0,0 43.341,-5.337 39.4,48.573c-3.94,53.911 37.267,45.943 37.267,45.943c0,0 43.341,-5.337 39.4,48.573c-3.94,53.911 37.267,45.943 37.267,45.943c0,0 43.341,-5.337 39.401,48.573c-3.941,53.911 37.266,45.943 37.266,45.943" style="fill:none;stroke:#c63944;stroke-width:20.83px;"/><path d="M-412.897,-445.724c-0,-0 43.341,-5.338 39.4,48.573c-3.941,53.911 37.267,45.943 37.267,45.943c-0,-0 43.341,-5.338 39.4,48.573c-3.94,53.911 37.267,45.943 37.267,45.943c0,-0 43.341,-5.338 39.4,48.573c-3.94,53.911 37.267,45.943 37.267,45.943c0,-0 43.341,-5.338 39.401,48.573c-3.941,53.911 37.266,45.943 37.266,45.943c0,0 43.341,-5.337 39.401,48.573c-3.941,53.911 37.267,45.943 37.267,45.943c-0,0 43.341,-5.337 39.4,48.573c-3.941,53.911 37.267,45.943 37.267,45.943" style="fill:none;stroke:#cd515b;stroke-width:20.83px;"/><path d="M-456.985,-409.963c0,0 43.341,-5.337 39.401,48.573c-3.941,53.911 37.267,45.943 37.267,45.943c-0,0 43.341,-5.337 39.4,48.574c-3.941,53.91 37.267,45.942 37.267,45.942c-0,0 43.341,-5.337 39.4,48.574c-3.94,53.91 37.267,45.943 37.267,45.943c-0,-0 43.341,-5.338 39.4,48.573c-3.94,53.91 37.267,45.943 37.267,45.943c0,-0 43.341,-5.338 39.401,48.573c-3.941,53.91 37.266,45.943 37.266,45.943c0,-0 43.341,-5.338 39.401,48.573c-3.941,53.911 37.267,45.943 37.267,45.943" style="fill:none;stroke:#d56d76;stroke-width:20.83px;"/><path d="M554.431,651.857c-0,0 43.341,-5.337 39.4,48.574c-3.94,53.91 37.267,45.943 37.267,45.943c-0,-0 43.341,-5.338 39.4,48.573c-3.94,53.91 37.267,45.943 37.267,45.943c0,-0 43.341,-5.338 39.4,48.573c-3.94,53.91 37.267,45.943 37.267,45.943c0,-0 43.341,-5.338 39.401,48.573c-3.941,53.911 37.266,45.943 37.266,45.943c0,-0 43.341,-5.338 39.401,48.573c-3.941,53.911 37.267,45.943 37.267,45.943c-0,-0 43.341,-5.338 39.4,48.573c-3.94,53.911 37.267,45.943 37.267,45.943" style="fill:none;stroke:#c63944;stroke-width:20.83px;"/><path d="M509.268,688.491c0,0 43.341,-5.337 39.4,48.574c-3.94,53.91 37.267,45.942 37.267,45.942c0,0 43.341,-5.337 39.401,48.574c-3.941,53.91 37.266,45.943 37.266,45.943c0,-0 43.341,-5.338 39.401,48.573c-3.941,53.91 37.267,45.943 37.267,45.943c-0,-0 43.341,-5.338 39.4,48.573c-3.94,53.91 37.267,45.943 37.267,45.943c-0,-0 43.341,-5.338 39.4,48.573c-3.94,53.911 37.267,45.943 37.267,45.943c0,-0 43.341,-5.338 39.4,48.573c-3.94,53.911 37.267,45.943 37.267,45.943" style="fill:none;stroke:#cd515b;stroke-width:20.83px;"/><path d="M465.181,724.253c-0,-0 43.341,-5.338 39.4,48.573c-3.94,53.911 37.267,45.943 37.267,45.943c0,0 43.341,-5.337 39.4,48.573c-3.94,53.911 37.267,45.943 37.267,45.943c0,0 43.341,-5.337 39.401,48.573c-3.941,53.911 37.266,45.943 37.266,45.943c0,0 43.341,-5.337 39.401,48.573c-3.941,53.911 37.267,45.943 37.267,45.943c-0,0 43.341,-5.337 39.4,48.573c-3.941,53.911 37.267,45.943 37.267,45.943c-0,0 43.341,-5.337 39.4,48.574c-3.94,53.91 37.267,45.942 37.267,45.942" style="fill:none;stroke:#d56d76;stroke-width:20.83px;"/><path d="M422.509,758.866c0,0 43.341,-5.337 39.401,48.573c-3.941,53.911 37.267,45.943 37.267,45.943c-0,0 43.341,-5.337 39.4,48.573c-3.941,53.911 37.267,45.943 37.267,45.943c-0,0 43.341,-5.337 39.4,48.573c-3.94,53.911 37.267,45.943 37.267,45.943c-0,0 43.341,-5.337 39.4,48.574c-3.94,53.91 37.267,45.942 37.267,45.942c0,0 43.341,-5.337 39.401,48.574c-3.941,53.91 37.266,45.943 37.266,45.943c0,-0 43.341,-5.338 39.401,48.573c-3.941,53.91 37.267,45.943 37.267,45.943" style="fill:none;stroke:#da7e85;stroke-width:20.83px;"/><path d="M93.374,-4.339c0,0 -16.251,43.001 39.401,48.573c55.652,5.573 37.267,45.943 37.267,45.943c-0,0 -16.252,43.001 39.4,48.574c55.652,5.572 37.267,45.942 37.267,45.942c-0,0 -16.251,43.002 39.4,48.574c55.652,5.572 37.267,45.943 37.267,45.943c0,-0 -16.251,43.001 39.4,48.573c55.652,5.572 37.267,45.943 37.267,45.943c0,-0 -16.251,43.001 39.401,48.573c55.651,5.572 37.266,45.943 37.266,45.943c0,-0 -16.251,43.001 39.401,48.573c55.652,5.572 37.267,45.943 37.267,45.943" style="fill:none;stroke:#c63944;stroke-width:20.83px;"/><path d="M141.816,-43.633c0,0 -16.251,43.001 39.401,48.574c55.652,5.572 37.267,45.942 37.267,45.942c-0,0 -16.252,43.002 39.4,48.574c55.652,5.572 37.267,45.943 37.267,45.943c-0,-0 -16.252,43.001 39.4,48.573c55.652,5.572 37.267,45.943 37.267,45.943c0,-0 -16.251,43.001 39.4,48.573c55.652,5.572 37.267,45.943 37.267,45.943c0,-0 -16.251,43.001 39.401,48.573c55.651,5.572 37.266,45.943 37.266,45.943c0,-0 -16.251,43.001 39.401,48.573c55.652,5.572 37.267,45.943 37.267,45.943" style="fill:none;stroke:#cd515b;stroke-width:20.83px;"/><path d="M189.105,-81.991c-0,0 -16.251,43.001 39.4,48.573c55.652,5.572 37.267,45.943 37.267,45.943c0,0 -16.251,43.001 39.401,48.573c55.651,5.572 37.266,45.943 37.266,45.943c0,0 -16.251,43.001 39.401,48.573c55.651,5.572 37.267,45.943 37.267,45.943c-0,0 -16.252,43.001 39.4,48.573c55.652,5.573 37.267,45.943 37.267,45.943c-0,0 -16.252,43.001 39.4,48.574c55.652,5.572 37.267,45.942 37.267,45.942c-0,0 -16.251,43.002 39.4,48.574c55.652,5.572 37.267,45.943 37.267,45.943" style="fill:none;stroke:#d56d76;stroke-width:20.83px;"/><path d="M234.875,-119.118c-0,0 -16.251,43.002 39.4,48.574c55.652,5.572 37.267,45.943 37.267,45.943c0,-0 -16.251,43.001 39.401,48.573c55.651,5.572 37.266,45.943 37.266,45.943c0,-0 -16.251,43.001 39.401,48.573c55.651,5.572 37.267,45.943 37.267,45.943c-0,-0 -16.252,43.001 39.4,48.573c55.652,5.572 37.267,45.943 37.267,45.943c-0,-0 -16.252,43.001 39.4,48.573c55.652,5.572 37.267,45.943 37.267,45.943c-0,-0 -16.251,43.001 39.4,48.573c55.652,5.572 37.267,45.943 37.267,45.943" style="fill:none;stroke:#da7e85;stroke-width:20.83px;"/><path d="M283.317,-158.411c-0,-0 -16.251,43.001 39.4,48.573c55.652,5.572 37.267,45.943 37.267,45.943c0,-0 -16.251,43.001 39.4,48.573c55.652,5.572 37.267,45.943 37.267,45.943c0,-0 -16.251,43.001 39.401,48.573c55.651,5.572 37.266,45.943 37.266,45.943c0,-0 -16.251,43.001 39.401,48.573c55.652,5.572 37.267,45.943 37.267,45.943c-0,-0 -16.252,43.001 39.4,48.573c55.652,5.572 37.267,45.943 37.267,45.943c-0,-0 -16.251,43.001 39.4,48.573c55.652,5.572 37.267,45.943 37.267,45.943" style="fill:none;stroke:#7fc2ca;stroke-width:20.83px;"/><path d="M330.605,-196.77c0,0 -16.251,43.001 39.401,48.573c55.652,5.572 37.267,45.943 37.267,45.943c-0,0 -16.252,43.001 39.4,48.573c55.652,5.573 37.267,45.943 37.267,45.943c-0,0 -16.252,43.001 39.4,48.574c55.652,5.572 37.267,45.942 37.267,45.942c0,0 -16.251,43.002 39.4,48.574c55.652,5.572 37.267,45.943 37.267,45.943c0,-0 -16.251,43.001 39.401,48.573c55.651,5.572 37.266,45.943 37.266,45.943c0,-0 -16.251,43.001 39.401,48.573c55.652,5.572 37.267,45.943 37.267,45.943" style="fill:none;stroke:#54aeb8;stroke-width:20.83px;"/><path d="M374.329,-232.237c0,0 -16.251,43.002 39.401,48.574c55.651,5.572 37.266,45.942 37.266,45.942c0,0 -16.251,43.002 39.401,48.574c55.652,5.572 37.267,45.943 37.267,45.943c-0,-0 -16.252,43.001 39.4,48.573c55.652,5.572 37.267,45.943 37.267,45.943c-0,-0 -16.251,43.001 39.4,48.573c55.652,5.572 37.267,45.943 37.267,45.943c0,-0 -16.251,43.001 39.4,48.573c55.652,5.572 37.267,45.943 37.267,45.943c0,-0 -16.251,43.001 39.401,48.573c55.651,5.572 37.266,45.943 37.266,45.943" style="fill:none;stroke:#2e9ca9;stroke-width:20.83px;"/><path d="M422.771,-271.531c0,0 -16.251,43.002 39.401,48.574c55.651,5.572 37.266,45.943 37.266,45.943c0,-0 -16.251,43.001 39.401,48.573c55.652,5.572 37.267,45.943 37.267,45.943c-0,-0 -16.252,43.001 39.4,48.573c55.652,5.572 37.267,45.943 37.267,45.943c-0,-0 -16.252,43.001 39.4,48.573c55.652,5.572 37.267,45.943 37.267,45.943c0,-0 -16.251,43.001 39.4,48.573c55.652,5.572 37.267,45.943 37.267,45.943c0,-0 -16.251,43.001 39.401,48.573c55.651,5.572 37.266,45.943 37.266,45.943" style="fill:none;stroke:#2196a4;stroke-width:20.83px;"/><path d="M470.06,-309.889c-0,0 -16.252,43.001 39.4,48.573c55.652,5.572 37.267,45.943 37.267,45.943c-0,0 -16.251,43.001 39.4,48.573c55.652,5.572 37.267,45.943 37.267,45.943c0,0 -16.251,43.001 39.401,48.573c55.651,5.573 37.266,45.943 37.266,45.943c0,0 -16.251,43.001 39.401,48.574c55.651,5.572 37.267,45.942 37.267,45.942c-0,0 -16.252,43.002 39.4,48.574c55.652,5.572 37.267,45.943 37.267,45.943c-0,-0 -16.252,43.001 39.4,48.573c55.652,5.572 37.267,45.943 37.267,45.943" style="fill:none;stroke:#008696;stroke-width:20.83px;"/></svg>