<?xml version="1.0" encoding="UTF-8" standalone="no"?><!DOCTYPE svg PUBLIC "-//W3C//DTD SVG 1.1//EN" "http://www.w3.org/Graphics/SVG/1.1/DTD/svg11.dtd"><svg width="100%" height="100%" viewBox="0 0 1959 3200" version="1.1" xmlns="http://www.w3.org/2000/svg" xmlns:xlink="http://www.w3.org/1999/xlink" xml:space="preserve" xmlns:serif="http://www.serif.com/" style="fill-rule:evenodd;clip-rule:evenodd;stroke-linecap:round;stroke-linejoin:round;stroke-miterlimit:1.5;"><rect x="-426.398" y="-703.275" width="7314.27" height="4383.96" style="fill:#fcfbf3;"/><path d="M338.747,353.754c0,0 159.542,-22.241 145.039,202.388c-14.507,224.629 137.179,191.429 137.179,191.429c-0,-0 159.541,-22.238 145.038,202.387c-14.507,224.629 137.183,191.429 137.183,191.429c-0,0 159.541,-22.237 145.034,202.388c-14.507,224.629 137.183,191.429 137.183,191.429c-0,0 159.541,-22.237 145.034,202.388c-14.503,224.629 137.183,191.429 137.183,191.429c-0,-0 159.541,-22.238 145.034,202.387c-14.503,224.629 137.183,191.429 137.183,191.429c0,0 159.542,-22.237 145.038,202.388c-3.071,47.557 1.307,83.557 10.117,110.763" style="fill:none;stroke:#c63944;stroke-width:81.89px;"/><path d="M172.503,506.396c-0,-0 159.541,-22.242 145.034,202.387c-14.507,224.63 137.183,191.429 137.183,191.429c-0,0 159.541,-22.241 145.034,202.388c-14.503,224.629 137.183,191.429 137.183,191.429c0,0 159.542,-22.242 145.034,202.388c-14.503,224.629 137.183,191.429 137.183,191.429c0,-0 159.542,-22.238 145.038,202.387c-14.507,224.629 137.179,191.429 137.179,191.429c0,0 159.542,-22.237 145.039,202.388c-14.508,224.629 137.182,191.429 137.182,191.429c0,0 159.542,-22.237 145.035,202.388c-14.507,224.629 137.182,191.429 137.182,191.429" style="fill:none;stroke:#cd515b;stroke-width:81.89px;"/><path d="M40.947,656.151c45.583,6.416 124.704,40.539 114.302,201.641c-14.507,224.625 137.183,191.425 137.183,191.425c0,-0 159.542,-22.238 145.035,202.391c-14.507,224.625 137.182,191.425 137.182,191.425c0,0 159.542,-22.237 145.035,202.392c-14.504,224.625 137.183,191.429 137.183,191.429c-0,0 159.541,-22.242 145.034,202.388c-14.503,224.625 137.183,191.429 137.183,191.429c-0,-0 159.541,-22.242 145.038,202.387c-14.507,224.625 137.179,191.429 137.179,191.429c-0,0 159.541,-22.241 145.038,202.388c-14.507,224.629 137.183,191.429 137.183,191.429" style="fill:none;stroke:#d56d76;stroke-width:81.89px;"/><path d="M40.947,1167.15c40.472,38.095 94.406,26.292 94.406,26.292c0,-0 159.542,-22.242 145.038,202.387c-14.507,224.625 137.179,191.429 137.179,191.429c0,0 159.542,-22.241 145.039,202.388c-14.508,224.629 137.182,191.429 137.182,191.429c0,-0 159.538,-22.242 145.035,202.388c-14.507,224.629 137.182,191.429 137.182,191.429c0,-0 159.542,-22.242 145.035,202.387c-14.504,224.629 137.183,191.429 137.183,191.429c-0,0 159.541,-22.241 145.034,202.388c-6.823,105.679 23.137,154.292 56.78,176.143" style="fill:none;stroke:#da7e85;stroke-width:81.89px;"/><path d="M48.019,1363.61c37.72,22.799 73.315,73.485 66.124,184.861c-14.507,224.625 137.183,191.429 137.183,191.429c-0,0 159.541,-22.242 145.034,202.388c-14.503,224.624 137.183,191.429 137.183,191.429c-0,-0 159.541,-22.242 145.034,202.387c-14.503,224.625 137.183,191.429 137.183,191.429c-0,0 159.542,-22.241 145.034,202.388c-14.503,224.629 137.183,191.429 137.183,191.429c0,-0 159.542,-22.242 145.038,202.387c-0.46,7.12 -0.752,13.98 -0.888,20.59" style="fill:none;stroke:#7fc2ca;stroke-width:81.89px;"/><path d="M54.951,1889.83c19.594,2.249 34.083,-0.922 34.083,-0.922c0,0 159.542,-22.237 145.038,202.388c-14.507,224.629 137.183,191.429 137.183,191.429c0,-0 159.542,-22.238 145.035,202.387c-14.504,224.63 137.182,191.429 137.182,191.429c0,0 159.542,-22.237 145.035,202.388c-14.504,224.629 137.182,191.429 137.182,191.429c0,0 90.338,-12.591 128.877,76.885" style="fill:none;stroke:#54aeb8;stroke-width:81.89px;"/><path d="M40.947,2062.51c27.704,28.397 48.756,78.515 43.07,166.559c-14.507,224.629 137.183,191.429 137.183,191.429c-0,-0 159.541,-22.238 145.034,202.387c-14.503,224.629 137.183,191.429 137.183,191.429c-0,0 159.541,-22.237 145.034,202.388c-3.882,60.124 4.142,101.777 17.977,130.539" style="fill:none;stroke:#2e9ca9;stroke-width:81.89px;"/><path d="M54.951,2573.14c0,0 159.542,-22.241 145.038,202.388c-14.507,224.629 137.179,191.429 137.179,191.429c0,0 150.752,-21.012 145.854,184.134" style="fill:none;stroke:#2196a4;stroke-width:81.89px;"/><path d="M37.698,2924.53c-1.757,27.217 -1.075,50.648 1.482,70.812c18.545,146.256 135.701,120.617 135.701,120.617c-0,0 54.82,-7.642 97.269,31.277" style="fill:none;stroke:#008696;stroke-width:81.89px;"/><path d="M190.769,47.649c9.81,28.231 14.841,65.317 11.698,113.997c-14.507,224.629 137.179,191.429 137.179,191.429" style="fill:none;stroke:#c63944;stroke-width:81.89px;"/><path d="M40.947,404.612c26.054,124.392 132.454,101.105 132.454,101.105" style="fill:none;stroke:#cd515b;stroke-width:81.89px;"/><path d="M1874.65,2868.71c0,-0.001 16.858,-2.35 39.116,2.194" style="fill:none;stroke:#cd515b;stroke-width:81.89px;"/><path d="M1712.37,3017.72c0,-0 120.701,-16.827 142.586,126.606" style="fill:none;stroke:#d56d76;stroke-width:81.89px;"/><path d="M336.158,52.625c4.268,52.881 34.313,118.278 152.597,131.683c204.859,23.221 137.183,191.43 137.183,191.43c-0,-0 -59.825,179.17 145.034,202.391c204.86,23.217 137.183,191.425 137.183,191.425c-0,0 -59.821,179.175 145.034,202.392c204.86,23.216 137.183,191.429 137.183,191.429c0,-0 -59.821,179.171 145.035,202.387c204.859,23.217 137.182,191.43 137.182,191.43c0,-0 -59.821,179.17 145.039,202.387c204.855,23.217 137.179,191.429 137.179,191.429c-0,0 -59.822,179.171 145.038,202.388" style="fill:none;stroke:#c63944;stroke-width:81.89px;"/><path d="M764.895,52.625c81.031,55.818 39.362,159.387 39.362,159.387c-0,0 -59.825,179.176 145.034,202.392c204.859,23.217 137.183,191.429 137.183,191.429c-0,0 -59.825,179.171 145.034,202.388c204.86,23.216 137.183,191.429 137.183,191.429c-0,0 -59.821,179.171 145.034,202.387c204.86,23.217 137.183,191.43 137.183,191.43c0,-0 -59.821,179.17 145.038,202.387c59.466,6.739 95.967,25.696 117.825,49.21" style="fill:none;stroke:#cd515b;stroke-width:81.89px;"/><path d="M978.327,52.188c0,-0.001 -59.821,179.17 145.039,202.387c204.855,23.217 137.179,191.429 137.179,191.429c-0,0 -59.822,179.171 145.038,202.388c204.855,23.216 137.182,191.429 137.182,191.429c0,-0 -59.824,179.171 145.035,202.387c204.859,23.221 137.183,191.43 137.183,191.43c-0,-0 -59.825,179.17 145.034,202.391c204.859,23.217 137.183,191.425 137.183,191.425c-0,0 -59.821,179.175 145.034,202.392c204.86,23.217 137.183,191.429 137.183,191.429" style="fill:none;stroke:#d56d76;stroke-width:81.89px;"/><path d="M1169.1,44.676c22.451,26.565 60.303,48.131 122.745,55.207c204.856,23.217 137.179,191.43 137.179,191.43c0,-0 -59.821,179.17 145.039,202.387c204.855,23.217 137.182,191.429 137.182,191.429c0,0 -59.825,179.171 145.035,202.388c24.338,2.758 44.83,7.563 62.045,13.889" style="fill:none;stroke:#da7e85;stroke-width:81.89px;"/><path d="M1617,49.641c5.055,41.385 -9.655,77.947 -9.655,77.947c0,-0 -59.821,179.17 145.038,202.387c204.856,23.217 137.179,191.429 137.179,191.429c0,0 -31.248,93.591 28.765,154.254" style="fill:none;stroke:#7fc2ca;stroke-width:81.89px;"/><path d="M1774.48,44.676c5.883,49.693 35.866,107.943 139.294,123.789" style="fill:none;stroke:#54aeb8;stroke-width:81.89px;"/><path d="M1556.25,-1131.38c-0,-0 -59.821,179.175 145.038,202.392c204.856,23.216 137.179,191.429 137.179,191.429c0,-0 -59.821,179.171 145.038,202.387c204.86,23.217 137.183,191.429 137.183,191.429c-0,0 -59.825,179.171 145.034,202.388c204.86,23.217 137.183,191.429 137.183,191.429c0,0 -59.825,179.171 145.035,202.388c204.859,23.216 137.182,191.429 137.182,191.429c0,-0 -59.821,179.171 145.035,202.387c204.859,23.217 137.182,191.429 137.182,191.429c0,0 -59.821,179.171 145.039,202.388c204.855,23.217 137.179,191.429 137.179,191.429" style="fill:none;stroke:#2196a4;stroke-width:81.89px;"/><path d="M1730.33,-1291.2c0,-0 -59.824,179.171 145.035,202.387c204.859,23.217 137.183,191.429 137.183,191.429c-0,0 -59.822,179.171 145.034,202.388c204.859,23.217 137.183,191.429 137.183,191.429c-0,0 -59.821,179.171 145.038,202.388c204.856,23.22 137.179,191.429 137.179,191.429c-0,-0 -59.821,179.171 145.038,202.391c204.856,23.217 137.183,191.425 137.183,191.425c-0,0 -59.825,179.175 145.034,202.392c204.86,23.217 137.183,191.429 137.183,191.429c-0,0 -59.825,179.171 145.034,202.388c204.86,23.216 137.183,191.429 137.183,191.429" style="fill:none;stroke:#008696;stroke-width:81.89px;"/></svg>