<?xml version="1.0" encoding="UTF-8" standalone="no"?><!DOCTYPE svg PUBLIC "-//W3C//DTD SVG 1.1//EN" "http://www.w3.org/Graphics/SVG/1.1/DTD/svg11.dtd"><svg width="100%" height="100%" viewBox="0 0 189 189" version="1.1" xmlns="http://www.w3.org/2000/svg" xmlns:xlink="http://www.w3.org/1999/xlink" xml:space="preserve" xmlns:serif="http://www.serif.com/" style="fill-rule:evenodd;clip-rule:evenodd;stroke-linecap:round;stroke-linejoin:round;stroke-miterlimit:1.5;"><path d="M11.868,35.254c0,-0 20.506,-37.022 55.381,-0c34.875,37.022 52.382,-0 52.382,-0c0,-0 20.506,-37.022 55.381,-0" style="fill:none;stroke:#008696;stroke-width:20.83px;"/><path d="M11.868,86.794c0,-0 20.506,-37.022 55.381,-0c34.875,37.022 52.382,-0 52.382,-0c0,-0 20.506,-37.022 55.381,-0" style="fill:none;stroke:#7cc1c9;stroke-width:20.83px;"/><path d="M11.868,137.245c0,0 20.506,-37.022 55.381,0c34.875,37.022 52.382,0 52.382,0c0,0 20.506,-37.022 55.381,0" style="fill:none;stroke:#cc4e58;stroke-width:20.83px;"/></svg>