<?xml version="1.0" encoding="UTF-8" standalone="no"?><!DOCTYPE svg PUBLIC "-//W3C//DTD SVG 1.1//EN" "http://www.w3.org/Graphics/SVG/1.1/DTD/svg11.dtd"><svg width="100%" height="100%" viewBox="0 0 1489 981" version="1.1" xmlns="http://www.w3.org/2000/svg" xmlns:xlink="http://www.w3.org/1999/xlink" xml:space="preserve" xmlns:serif="http://www.serif.com/" style="fill-rule:evenodd;clip-rule:evenodd;stroke-linecap:round;stroke-linejoin:round;stroke-miterlimit:1.5;"><rect x="-115.835" y="-62.702" width="1986.99" height="1052.15" style="fill:#fcfbf3;"/><path d="M11.868,35.254c0,-0 17.357,-37.022 46.876,-0c29.519,37.022 44.337,-0 44.337,-0c0,-0 17.357,-37.022 46.876,-0c29.519,37.022 44.337,-0 44.337,-0c0,-0 17.357,-37.022 46.876,-0c29.519,37.022 44.337,-0 44.337,-0c0,-0 17.357,-37.022 46.876,-0c29.519,37.022 44.337,-0 44.337,-0c-0,-0 17.357,-37.022 46.876,-0c29.519,37.022 44.337,-0 44.337,-0c-0,-0 17.356,-37.022 46.876,-0c29.519,37.022 44.337,-0 44.337,-0c-0,-0 17.356,-37.022 46.875,-0c29.52,37.022 44.338,-0 44.338,-0c-0,-0 17.356,-37.022 46.875,-0c29.519,37.022 44.338,-0 44.338,-0c-0,-0 17.356,-37.022 46.875,-0c29.519,37.022 44.338,-0 44.338,-0c-0,-0 17.356,-37.022 46.875,-0c29.519,37.022 44.337,-0 44.337,-0c0,-0 17.357,-37.022 46.876,-0c29.519,37.022 44.337,-0 44.337,-0c0,-0 17.357,-37.022 46.876,-0c29.519,37.022 44.337,-0 44.337,-0c0,-0 17.357,-37.022 46.876,-0c29.519,37.022 44.337,-0 44.337,-0c0,-0 17.357,-37.022 46.876,-0c29.519,37.022 44.337,-0 44.337,-0c0,-0 17.357,-37.022 46.876,-0c29.519,37.022 44.337,-0 44.337,-0c-0,-0 17.356,-37.022 46.876,-0c29.519,37.022 44.337,-0 44.337,-0" style="fill:none;stroke:#008696;stroke-width:20.83px;"/><path d="M11.868,35.254c0,-0 17.357,-37.022 46.876,-0c29.519,37.022 44.337,-0 44.337,-0c0,-0 17.357,-37.022 46.876,-0" style="fill:none;stroke:#008696;stroke-width:20.83px;"/><path d="M149.957,35.254c29.519,37.022 44.337,-0 44.337,-0c0,-0 17.357,-37.022 46.876,-0c29.519,37.022 44.337,-0 44.337,-0c0,-0 17.357,-37.022 46.876,-0c29.519,37.022 44.337,-0 44.337,-0c-0,-0 17.357,-37.022 46.876,-0c29.519,37.022 44.337,-0 44.337,-0c-0,-0 17.356,-37.022 46.876,-0c29.519,37.022 44.337,-0 44.337,-0c-0,-0 17.356,-37.022 46.875,-0c29.52,37.022 44.338,-0 44.338,-0c-0,-0 17.356,-37.022 46.875,-0c29.519,37.022 44.338,-0 44.338,-0c-0,-0 17.356,-37.022 46.875,-0c29.519,37.022 44.338,-0 44.338,-0c-0,-0 17.356,-37.022 46.875,-0c29.519,37.022 44.337,-0 44.337,-0c0,-0 17.357,-37.022 46.876,-0c29.519,37.022 44.337,-0 44.337,-0c0,-0 17.357,-37.022 46.876,-0c29.519,37.022 44.337,-0 44.337,-0c0,-0 17.357,-37.022 46.876,-0c29.519,37.022 44.337,-0 44.337,-0c0,-0 17.357,-37.022 46.876,-0c29.519,37.022 44.337,-0 44.337,-0c0,-0 17.357,-37.022 46.876,-0c29.519,37.022 44.337,-0 44.337,-0c-0,-0 17.356,-37.022 46.876,-0c29.519,37.022 44.337,-0 44.337,-0" style="fill:none;stroke:#008696;stroke-width:20.83px;"/><path d="M11.868,96.858c0,0 17.357,-37.022 46.876,0c29.519,37.023 44.337,0 44.337,0c0,0 17.357,-37.022 46.876,0c29.519,37.023 44.337,0 44.337,0c0,0 17.357,-37.022 46.876,0c29.519,37.023 44.337,0 44.337,0c0,0 17.357,-37.022 46.876,0c29.519,37.023 44.337,0 44.337,0c-0,0 17.357,-37.022 46.876,0c29.519,37.023 44.337,0 44.337,0c-0,0 17.356,-37.022 46.876,0c29.519,37.023 44.337,0 44.337,0c-0,0 17.356,-37.022 46.875,0c29.52,37.023 44.338,0 44.338,0c-0,0 17.356,-37.022 46.875,0c29.519,37.023 44.338,0 44.338,0c-0,0 17.356,-37.022 46.875,0c29.519,37.023 44.338,0 44.338,0c-0,0 17.356,-37.022 46.875,0c29.519,37.023 44.337,0 44.337,0c0,0 17.357,-37.022 46.876,0c29.519,37.023 44.337,0 44.337,0c0,0 17.357,-37.022 46.876,0c29.519,37.023 44.337,0 44.337,0c0,0 17.357,-37.022 46.876,0c29.519,37.023 44.337,0 44.337,0c0,0 17.357,-37.022 46.876,0c29.519,37.023 44.337,0 44.337,0c0,0 17.357,-37.022 46.876,0c29.519,37.023 44.337,0 44.337,0c-0,0 17.356,-37.022 46.876,0c29.519,37.023 44.337,0 44.337,0" style="fill:none;stroke:#15909f;stroke-width:20.83px;"/><path d="M11.868,157.12c0,0 17.357,-37.022 46.876,0c29.519,37.023 44.337,0 44.337,0c0,0 17.357,-37.022 46.876,0c29.519,37.023 44.337,0 44.337,0c0,0 17.357,-37.022 46.876,0c29.519,37.023 44.337,0 44.337,0c0,0 17.357,-37.022 46.876,0c29.519,37.023 44.337,0 44.337,0c-0,0 17.357,-37.022 46.876,0c29.519,37.023 44.337,0 44.337,0c-0,0 17.356,-37.022 46.876,0c29.519,37.023 44.337,0 44.337,0c-0,0 17.356,-37.022 46.875,0c29.52,37.023 44.338,0 44.338,0c-0,0 17.356,-37.022 46.875,0c29.519,37.023 44.338,0 44.338,0c-0,0 17.356,-37.022 46.875,0c29.519,37.023 44.338,0 44.338,0c-0,0 17.356,-37.022 46.875,0c29.519,37.023 44.337,0 44.337,0c0,0 17.357,-37.022 46.876,0c29.519,37.023 44.337,0 44.337,0c0,0 17.357,-37.022 46.876,0c29.519,37.023 44.337,0 44.337,0c0,0 17.357,-37.022 46.876,0c29.519,37.023 44.337,0 44.337,0c0,0 17.357,-37.022 46.876,0c29.519,37.023 44.337,0 44.337,0c0,0 17.357,-37.022 46.876,0c29.519,37.023 44.337,0 44.337,0c-0,0 17.356,-37.022 46.876,0c29.519,37.023 44.337,0 44.337,0" style="fill:none;stroke:#2999a7;stroke-width:20.83px;"/><path d="M11.868,216.913c0,0 17.357,-37.022 46.876,0c29.519,37.022 44.337,0 44.337,0c0,0 17.357,-37.022 46.876,0c29.519,37.022 44.337,0 44.337,0c0,0 17.357,-37.022 46.876,0c29.519,37.022 44.337,0 44.337,0c0,0 17.357,-37.022 46.876,0c29.519,37.022 44.337,0 44.337,0c-0,0 17.357,-37.022 46.876,0c29.519,37.022 44.337,0 44.337,0c-0,0 17.356,-37.022 46.876,0c29.519,37.022 44.337,0 44.337,0c-0,0 17.356,-37.022 46.875,0c29.52,37.022 44.338,0 44.338,0c-0,0 17.356,-37.022 46.875,0c29.519,37.022 44.338,0 44.338,0c-0,0 17.356,-37.022 46.875,0c29.519,37.022 44.338,0 44.338,0c-0,0 17.356,-37.022 46.875,0c29.519,37.022 44.337,0 44.337,0c0,0 17.357,-37.022 46.876,0c29.519,37.022 44.337,0 44.337,0c0,0 17.357,-37.022 46.876,0c29.519,37.022 44.337,0 44.337,0c0,0 17.357,-37.022 46.876,0c29.519,37.022 44.337,0 44.337,0c0,0 17.357,-37.022 46.876,0c29.519,37.022 44.337,0 44.337,0c0,0 17.357,-37.022 46.876,0c29.519,37.022 44.337,0 44.337,0c-0,0 17.356,-37.022 46.876,0c29.519,37.022 44.337,0 44.337,0" style="fill:none;stroke:#359fac;stroke-width:20.83px;"/><path d="M11.868,278.518c0,-0 17.357,-37.022 46.876,-0c29.519,37.022 44.337,-0 44.337,-0c0,-0 17.357,-37.022 46.876,-0c29.519,37.022 44.337,-0 44.337,-0c0,-0 17.357,-37.022 46.876,-0c29.519,37.022 44.337,-0 44.337,-0c0,-0 17.357,-37.022 46.876,-0c29.519,37.022 44.337,-0 44.337,-0c-0,-0 17.357,-37.022 46.876,-0c29.519,37.022 44.337,-0 44.337,-0c-0,-0 17.356,-37.022 46.876,-0c29.519,37.022 44.337,-0 44.337,-0c-0,-0 17.356,-37.022 46.875,-0c29.52,37.022 44.338,-0 44.338,-0c-0,-0 17.356,-37.022 46.875,-0c29.519,37.022 44.338,-0 44.338,-0c-0,-0 17.356,-37.022 46.875,-0c29.519,37.022 44.338,-0 44.338,-0c-0,-0 17.356,-37.022 46.875,-0c29.519,37.022 44.337,-0 44.337,-0c0,-0 17.357,-37.022 46.876,-0c29.519,37.022 44.337,-0 44.337,-0c0,-0 17.357,-37.022 46.876,-0c29.519,37.022 44.337,-0 44.337,-0c0,-0 17.357,-37.022 46.876,-0c29.519,37.022 44.337,-0 44.337,-0c0,-0 17.357,-37.022 46.876,-0c29.519,37.022 44.337,-0 44.337,-0c0,-0 17.357,-37.022 46.876,-0c29.519,37.022 44.337,-0 44.337,-0c-0,-0 17.356,-37.022 46.876,-0c29.519,37.022 44.337,-0 44.337,-0" style="fill:none;stroke:#46a7b3;stroke-width:20.83px;"/><path d="M11.868,338.78c0,-0 17.357,-37.022 46.876,-0c29.519,37.022 44.337,-0 44.337,-0c0,-0 17.357,-37.022 46.876,-0c29.519,37.022 44.337,-0 44.337,-0c0,-0 17.357,-37.022 46.876,-0c29.519,37.022 44.337,-0 44.337,-0c0,-0 17.357,-37.022 46.876,-0c29.519,37.022 44.337,-0 44.337,-0c-0,-0 17.357,-37.022 46.876,-0c29.519,37.022 44.337,-0 44.337,-0c-0,-0 17.356,-37.022 46.876,-0c29.519,37.022 44.337,-0 44.337,-0c-0,-0 17.356,-37.022 46.875,-0c29.52,37.022 44.338,-0 44.338,-0c-0,-0 17.356,-37.022 46.875,-0c29.519,37.022 44.338,-0 44.338,-0c-0,-0 17.356,-37.022 46.875,-0c29.519,37.022 44.338,-0 44.338,-0c-0,-0 17.356,-37.022 46.875,-0c29.519,37.022 44.337,-0 44.337,-0c0,-0 17.357,-37.022 46.876,-0c29.519,37.022 44.337,-0 44.337,-0c0,-0 17.357,-37.022 46.876,-0c29.519,37.022 44.337,-0 44.337,-0c0,-0 17.357,-37.022 46.876,-0c29.519,37.022 44.337,-0 44.337,-0c0,-0 17.357,-37.022 46.876,-0c29.519,37.022 44.337,-0 44.337,-0c0,-0 17.357,-37.022 46.876,-0c29.519,37.022 44.337,-0 44.337,-0c-0,-0 17.356,-37.022 46.876,-0c29.519,37.022 44.337,-0 44.337,-0" style="fill:none;stroke:#67b7c0;stroke-width:20.83px;"/><path d="M11.868,398.68c0,0 17.357,-37.022 46.876,0c29.519,37.022 44.337,0 44.337,0c0,0 17.357,-37.022 46.876,0c29.519,37.022 44.337,0 44.337,0c0,0 17.357,-37.022 46.876,0c29.519,37.022 44.337,0 44.337,0c0,0 17.357,-37.022 46.876,0c29.519,37.022 44.337,0 44.337,0c-0,0 17.357,-37.022 46.876,0c29.519,37.022 44.337,0 44.337,0c-0,0 17.356,-37.022 46.876,0c29.519,37.022 44.337,0 44.337,0c-0,0 17.356,-37.022 46.875,0c29.52,37.022 44.338,0 44.338,0c-0,0 17.356,-37.022 46.875,0c29.519,37.022 44.338,0 44.338,0c-0,0 17.356,-37.022 46.875,0c29.519,37.022 44.338,0 44.338,0c-0,0 17.356,-37.022 46.875,0c29.519,37.022 44.337,0 44.337,0c0,0 17.357,-37.022 46.876,0c29.519,37.022 44.337,0 44.337,0c0,0 17.357,-37.022 46.876,0c29.519,37.022 44.337,0 44.337,0c0,0 17.357,-37.022 46.876,0c29.519,37.022 44.337,0 44.337,0c0,0 17.357,-37.022 46.876,0c29.519,37.022 44.337,0 44.337,0c0,0 17.357,-37.022 46.876,0c29.519,37.022 44.337,0 44.337,0c-0,0 17.356,-37.022 46.876,0c29.519,37.022 44.337,0 44.337,0" style="fill:none;stroke:#7cc1c9;stroke-width:20.83px;"/><path d="M11.868,460.285c0,-0 17.357,-37.022 46.876,-0c29.519,37.022 44.337,-0 44.337,-0c0,-0 17.357,-37.022 46.876,-0c29.519,37.022 44.337,-0 44.337,-0c0,-0 17.357,-37.022 46.876,-0c29.519,37.022 44.337,-0 44.337,-0c0,-0 17.357,-37.022 46.876,-0c29.519,37.022 44.337,-0 44.337,-0c-0,-0 17.357,-37.022 46.876,-0c29.519,37.022 44.337,-0 44.337,-0c-0,-0 17.356,-37.022 46.876,-0c29.519,37.022 44.337,-0 44.337,-0c-0,-0 17.356,-37.022 46.875,-0c29.52,37.022 44.338,-0 44.338,-0c-0,-0 17.356,-37.022 46.875,-0c29.519,37.022 44.338,-0 44.338,-0c-0,-0 17.356,-37.022 46.875,-0c29.519,37.022 44.338,-0 44.338,-0c-0,-0 17.356,-37.022 46.875,-0c29.519,37.022 44.337,-0 44.337,-0c0,-0 17.357,-37.022 46.876,-0c29.519,37.022 44.337,-0 44.337,-0c0,-0 17.357,-37.022 46.876,-0c29.519,37.022 44.337,-0 44.337,-0c0,-0 17.357,-37.022 46.876,-0c29.519,37.022 44.337,-0 44.337,-0c0,-0 17.357,-37.022 46.876,-0c29.519,37.022 44.337,-0 44.337,-0c0,-0 17.357,-37.022 46.876,-0c29.519,37.022 44.337,-0 44.337,-0c-0,-0 17.356,-37.022 46.876,-0c29.519,37.022 44.337,-0 44.337,-0" style="fill:none;stroke:#add8dd;stroke-width:20.83px;"/><path d="M11.868,520.547c0,-0 17.357,-37.022 46.876,-0c29.519,37.022 44.337,-0 44.337,-0c0,-0 17.357,-37.022 46.876,-0c29.519,37.022 44.337,-0 44.337,-0c0,-0 17.357,-37.022 46.876,-0c29.519,37.022 44.337,-0 44.337,-0c0,-0 17.357,-37.022 46.876,-0c29.519,37.022 44.337,-0 44.337,-0c-0,-0 17.357,-37.022 46.876,-0c29.519,37.022 44.337,-0 44.337,-0c-0,-0 17.356,-37.022 46.876,-0c29.519,37.022 44.337,-0 44.337,-0c-0,-0 17.356,-37.022 46.875,-0c29.52,37.022 44.338,-0 44.338,-0c-0,-0 17.356,-37.022 46.875,-0c29.519,37.022 44.338,-0 44.338,-0c-0,-0 17.356,-37.022 46.875,-0c29.519,37.022 44.338,-0 44.338,-0c-0,-0 17.356,-37.022 46.875,-0c29.519,37.022 44.337,-0 44.337,-0c0,-0 17.357,-37.022 46.876,-0c29.519,37.022 44.337,-0 44.337,-0c0,-0 17.357,-37.022 46.876,-0c29.519,37.022 44.337,-0 44.337,-0c0,-0 17.357,-37.022 46.876,-0c29.519,37.022 44.337,-0 44.337,-0c0,-0 17.357,-37.022 46.876,-0c29.519,37.022 44.337,-0 44.337,-0c0,-0 17.357,-37.022 46.876,-0c29.519,37.022 44.337,-0 44.337,-0c-0,-0 17.356,-37.022 46.876,-0c29.519,37.022 44.337,-0 44.337,-0" style="fill:none;stroke:#cce7ea;stroke-width:20.83px;"/><path d="M11.868,577.807c0,0 17.357,-37.022 46.876,0c29.519,37.022 44.337,0 44.337,0c0,0 17.357,-37.022 46.876,0c29.519,37.022 44.337,0 44.337,0c0,0 17.357,-37.022 46.876,0c29.519,37.022 44.337,0 44.337,0c0,0 17.357,-37.022 46.876,0c29.519,37.022 44.337,0 44.337,0c-0,0 17.357,-37.022 46.876,0c29.519,37.022 44.337,0 44.337,0c-0,0 17.356,-37.022 46.876,0c29.519,37.022 44.337,0 44.337,0c-0,0 17.356,-37.022 46.875,0c29.52,37.022 44.338,0 44.338,0c-0,0 17.356,-37.022 46.875,0c29.519,37.022 44.338,0 44.338,0c-0,0 17.356,-37.022 46.875,0c29.519,37.022 44.338,0 44.338,0c-0,0 17.356,-37.022 46.875,0c29.519,37.022 44.337,0 44.337,0c0,0 17.357,-37.022 46.876,0c29.519,37.022 44.337,0 44.337,0c0,0 17.357,-37.022 46.876,0c29.519,37.022 44.337,0 44.337,0c0,0 17.357,-37.022 46.876,0c29.519,37.022 44.337,0 44.337,0c0,0 17.357,-37.022 46.876,0c29.519,37.022 44.337,0 44.337,0c0,0 17.357,-37.022 46.876,0c29.519,37.022 44.337,0 44.337,0c-0,0 17.356,-37.022 46.876,0c29.519,37.022 44.337,0 44.337,0" style="fill:none;stroke:#ebb9bd;stroke-width:20.83px;"/><path d="M11.868,637.6c0,0 17.357,-37.022 46.876,0c29.519,37.022 44.337,0 44.337,0c0,0 17.357,-37.022 46.876,0c29.519,37.022 44.337,0 44.337,0c0,0 17.357,-37.022 46.876,0c29.519,37.022 44.337,0 44.337,0c0,0 17.357,-37.022 46.876,0c29.519,37.022 44.337,0 44.337,0c-0,0 17.357,-37.022 46.876,0c29.519,37.022 44.337,0 44.337,0c-0,0 17.356,-37.022 46.876,0c29.519,37.022 44.337,0 44.337,0c-0,0 17.356,-37.022 46.875,0c29.52,37.022 44.338,0 44.338,0c-0,0 17.356,-37.022 46.875,0c29.519,37.022 44.338,0 44.338,0c-0,0 17.356,-37.022 46.875,0c29.519,37.022 44.338,0 44.338,0c-0,0 17.356,-37.022 46.875,0c29.519,37.022 44.337,0 44.337,0c0,0 17.357,-37.022 46.876,0c29.519,37.022 44.337,0 44.337,0c0,0 17.357,-37.022 46.876,0c29.519,37.022 44.337,0 44.337,0c0,0 17.357,-37.022 46.876,0c29.519,37.022 44.337,0 44.337,0c0,0 17.357,-37.022 46.876,0c29.519,37.022 44.337,0 44.337,0c0,0 17.357,-37.022 46.876,0c29.519,37.022 44.337,0 44.337,0c-0,0 17.356,-37.022 46.876,0c29.519,37.022 44.337,0 44.337,0" style="fill:none;stroke:#e6a9ae;stroke-width:20.83px;"/><path d="M11.868,699.205c0,-0 17.357,-37.022 46.876,-0c29.519,37.022 44.337,-0 44.337,-0c0,-0 17.357,-37.022 46.876,-0c29.519,37.022 44.337,-0 44.337,-0c0,-0 17.357,-37.022 46.876,-0c29.519,37.022 44.337,-0 44.337,-0c0,-0 17.357,-37.022 46.876,-0c29.519,37.022 44.337,-0 44.337,-0c-0,-0 17.357,-37.022 46.876,-0c29.519,37.022 44.337,-0 44.337,-0c-0,-0 17.356,-37.022 46.876,-0c29.519,37.022 44.337,-0 44.337,-0c-0,-0 17.356,-37.022 46.875,-0c29.52,37.022 44.338,-0 44.338,-0c-0,-0 17.356,-37.022 46.875,-0c29.519,37.022 44.338,-0 44.338,-0c-0,-0 17.356,-37.022 46.875,-0c29.519,37.022 44.338,-0 44.338,-0c-0,-0 17.356,-37.022 46.875,-0c29.519,37.022 44.337,-0 44.337,-0c0,-0 17.357,-37.022 46.876,-0c29.519,37.022 44.337,-0 44.337,-0c0,-0 17.357,-37.022 46.876,-0c29.519,37.022 44.337,-0 44.337,-0c0,-0 17.357,-37.022 46.876,-0c29.519,37.022 44.337,-0 44.337,-0c0,-0 17.357,-37.022 46.876,-0c29.519,37.022 44.337,-0 44.337,-0c0,-0 17.357,-37.022 46.876,-0c29.519,37.022 44.337,-0 44.337,-0c-0,-0 17.356,-37.022 46.876,-0c29.519,37.022 44.337,-0 44.337,-0" style="fill:none;stroke:#e09298;stroke-width:20.83px;"/><path d="M11.868,759.467c0,-0 17.357,-37.022 46.876,-0c29.519,37.022 44.337,-0 44.337,-0c0,-0 17.357,-37.022 46.876,-0c29.519,37.022 44.337,-0 44.337,-0c0,-0 17.357,-37.022 46.876,-0c29.519,37.022 44.337,-0 44.337,-0c0,-0 17.357,-37.022 46.876,-0c29.519,37.022 44.337,-0 44.337,-0c-0,-0 17.357,-37.022 46.876,-0c29.519,37.022 44.337,-0 44.337,-0c-0,-0 17.356,-37.022 46.876,-0c29.519,37.022 44.337,-0 44.337,-0c-0,-0 17.356,-37.022 46.875,-0c29.52,37.022 44.338,-0 44.338,-0c-0,-0 17.356,-37.022 46.875,-0c29.519,37.022 44.338,-0 44.338,-0c-0,-0 17.356,-37.022 46.875,-0c29.519,37.022 44.338,-0 44.338,-0c-0,-0 17.356,-37.022 46.875,-0c29.519,37.022 44.337,-0 44.337,-0c0,-0 17.357,-37.022 46.876,-0c29.519,37.022 44.337,-0 44.337,-0c0,-0 17.357,-37.022 46.876,-0c29.519,37.022 44.337,-0 44.337,-0c0,-0 17.357,-37.022 46.876,-0c29.519,37.022 44.337,-0 44.337,-0c0,-0 17.357,-37.022 46.876,-0c29.519,37.022 44.337,-0 44.337,-0c0,-0 17.357,-37.022 46.876,-0c29.519,37.022 44.337,-0 44.337,-0c-0,-0 17.356,-37.022 46.876,-0c29.519,37.022 44.337,-0 44.337,-0" style="fill:none;stroke:#da7e86;stroke-width:20.83px;"/><path d="M11.868,819.367c0,-0 17.357,-37.022 46.876,-0c29.519,37.022 44.337,-0 44.337,-0c0,-0 17.357,-37.022 46.876,-0c29.519,37.022 44.337,-0 44.337,-0c0,-0 17.357,-37.022 46.876,-0c29.519,37.022 44.337,-0 44.337,-0c0,-0 17.357,-37.022 46.876,-0c29.519,37.022 44.337,-0 44.337,-0c-0,-0 17.357,-37.022 46.876,-0c29.519,37.022 44.337,-0 44.337,-0c-0,-0 17.356,-37.022 46.876,-0c29.519,37.022 44.337,-0 44.337,-0c-0,-0 17.356,-37.022 46.875,-0c29.52,37.022 44.338,-0 44.338,-0c-0,-0 17.356,-37.022 46.875,-0c29.519,37.022 44.338,-0 44.338,-0c-0,-0 17.356,-37.022 46.875,-0c29.519,37.022 44.338,-0 44.338,-0c-0,-0 17.356,-37.022 46.875,-0c29.519,37.022 44.337,-0 44.337,-0c0,-0 17.357,-37.022 46.876,-0c29.519,37.022 44.337,-0 44.337,-0c0,-0 17.357,-37.022 46.876,-0c29.519,37.022 44.337,-0 44.337,-0c0,-0 17.357,-37.022 46.876,-0c29.519,37.022 44.337,-0 44.337,-0c0,-0 17.357,-37.022 46.876,-0c29.519,37.022 44.337,-0 44.337,-0c0,-0 17.357,-37.022 46.876,-0c29.519,37.022 44.337,-0 44.337,-0c-0,-0 17.356,-37.022 46.876,-0c29.519,37.022 44.337,-0 44.337,-0" style="fill:none;stroke:#d3656d;stroke-width:20.83px;"/><path d="M11.868,880.972c0,-0 17.357,-37.022 46.876,-0c29.519,37.022 44.337,-0 44.337,-0c0,-0 17.357,-37.022 46.876,-0c29.519,37.022 44.337,-0 44.337,-0c0,-0 17.357,-37.022 46.876,-0c29.519,37.022 44.337,-0 44.337,-0c0,-0 17.357,-37.022 46.876,-0c29.519,37.022 44.337,-0 44.337,-0c-0,-0 17.357,-37.022 46.876,-0c29.519,37.022 44.337,-0 44.337,-0c-0,-0 17.356,-37.022 46.876,-0c29.519,37.022 44.337,-0 44.337,-0c-0,-0 17.356,-37.022 46.875,-0c29.52,37.022 44.338,-0 44.338,-0c-0,-0 17.356,-37.022 46.875,-0c29.519,37.022 44.338,-0 44.338,-0c-0,-0 17.356,-37.022 46.875,-0c29.519,37.022 44.338,-0 44.338,-0c-0,-0 17.356,-37.022 46.875,-0c29.519,37.022 44.337,-0 44.337,-0c0,-0 17.357,-37.022 46.876,-0c29.519,37.022 44.337,-0 44.337,-0c0,-0 17.357,-37.022 46.876,-0c29.519,37.022 44.337,-0 44.337,-0c0,-0 17.357,-37.022 46.876,-0c29.519,37.022 44.337,-0 44.337,-0c0,-0 17.357,-37.022 46.876,-0c29.519,37.022 44.337,-0 44.337,-0c0,-0 17.357,-37.022 46.876,-0c29.519,37.022 44.337,-0 44.337,-0c-0,-0 17.356,-37.022 46.876,-0c29.519,37.022 44.337,-0 44.337,-0" style="fill:none;stroke:#cc4e58;stroke-width:20.83px;"/><path d="M11.868,941.234c0,-0 17.357,-37.022 46.876,-0c29.519,37.022 44.337,-0 44.337,-0c0,-0 17.357,-37.022 46.876,-0c29.519,37.022 44.337,-0 44.337,-0c0,-0 17.357,-37.022 46.876,-0c29.519,37.022 44.337,-0 44.337,-0c0,-0 17.357,-37.022 46.876,-0c29.519,37.022 44.337,-0 44.337,-0c-0,-0 17.357,-37.022 46.876,-0c29.519,37.022 44.337,-0 44.337,-0c-0,-0 17.356,-37.022 46.876,-0c29.519,37.022 44.337,-0 44.337,-0c-0,-0 17.356,-37.022 46.875,-0c29.52,37.022 44.338,-0 44.338,-0c-0,-0 17.356,-37.022 46.875,-0c29.519,37.022 44.338,-0 44.338,-0c-0,-0 17.356,-37.022 46.875,-0c29.519,37.022 44.338,-0 44.338,-0c-0,-0 17.356,-37.022 46.875,-0c29.519,37.022 44.337,-0 44.337,-0c0,-0 17.357,-37.022 46.876,-0c29.519,37.022 44.337,-0 44.337,-0c0,-0 17.357,-37.022 46.876,-0c29.519,37.022 44.337,-0 44.337,-0c0,-0 17.357,-37.022 46.876,-0c29.519,37.022 44.337,-0 44.337,-0c0,-0 17.357,-37.022 46.876,-0c29.519,37.022 44.337,-0 44.337,-0c0,-0 17.357,-37.022 46.876,-0c29.519,37.022 44.337,-0 44.337,-0c-0,-0 17.356,-37.022 46.876,-0c29.519,37.022 44.337,-0 44.337,-0" style="fill:none;stroke:#c63944;stroke-width:20.83px;"/></svg>