<?xml version="1.0" encoding="UTF-8" standalone="no"?><!DOCTYPE svg PUBLIC "-//W3C//DTD SVG 1.1//EN" "http://www.w3.org/Graphics/SVG/1.1/DTD/svg11.dtd"><svg width="100%" height="100%" viewBox="0 0 532 768" version="1.1" xmlns="http://www.w3.org/2000/svg" xmlns:xlink="http://www.w3.org/1999/xlink" xml:space="preserve" xmlns:serif="http://www.serif.com/" style="fill-rule:evenodd;clip-rule:evenodd;stroke-linecap:round;stroke-linejoin:round;stroke-miterlimit:1.5;"><rect x="-115.835" y="-168.786" width="1986.99" height="1052.15" style="fill:#fcfbf3;"/><path d="M42.734,747.03c0,0 -37.022,-23.158 0,-62.543c37.022,-39.386 0,-59.158 0,-59.158c0,0 -37.022,-23.158 0,-62.544c37.022,-39.385 0,-59.157 0,-59.157c0,0 -37.022,-23.158 0,-62.544c37.022,-39.386 0,-59.157 0,-59.157c0,0 -37.022,-23.158 0,-62.544c37.022,-39.386 0,-59.157 0,-59.157c0,0 -37.022,-23.158 0,-62.544c37.022,-39.386 0,-59.157 0,-59.157c0,0 -37.022,-23.158 0,-62.544c37.022,-39.386 0,-59.157 0,-59.157" style="fill:none;stroke:#c63944;stroke-width:20.83px;"/><path d="M100.887,747.03c-0,0 -37.023,-23.158 -0,-62.543c37.022,-39.386 -0,-59.158 -0,-59.158c-0,0 -37.023,-23.158 -0,-62.544c37.022,-39.385 -0,-59.157 -0,-59.157c-0,0 -37.023,-23.158 -0,-62.544c37.022,-39.386 -0,-59.157 -0,-59.157c-0,0 -37.023,-23.158 -0,-62.544c37.022,-39.386 -0,-59.157 -0,-59.157c-0,0 -37.023,-23.158 -0,-62.544c37.022,-39.386 -0,-59.157 -0,-59.157c-0,0 -37.023,-23.158 -0,-62.544c37.022,-39.386 -0,-59.157 -0,-59.157" style="fill:none;stroke:#cd515b;stroke-width:20.83px;"/><path d="M157.654,747.03c0,0 -37.022,-23.158 0,-62.543c37.022,-39.386 0,-59.158 0,-59.158c0,0 -37.022,-23.158 0,-62.544c37.022,-39.385 0,-59.157 0,-59.157c0,0 -37.022,-23.158 0,-62.544c37.022,-39.386 0,-59.157 0,-59.157c0,0 -37.022,-23.158 0,-62.544c37.022,-39.386 0,-59.157 0,-59.157c0,0 -37.022,-23.158 0,-62.544c37.022,-39.386 0,-59.157 0,-59.157c0,0 -37.022,-23.158 0,-62.544c37.022,-39.386 0,-59.157 0,-59.157" style="fill:none;stroke:#d56d76;stroke-width:20.83px;"/><path d="M212.599,747.03c0,0 -37.022,-23.158 0,-62.543c37.022,-39.386 0,-59.158 0,-59.158c0,0 -37.022,-23.158 0,-62.544c37.022,-39.385 0,-59.157 0,-59.157c0,0 -37.022,-23.158 0,-62.544c37.022,-39.386 0,-59.157 0,-59.157c0,0 -37.022,-23.158 0,-62.544c37.022,-39.386 0,-59.157 0,-59.157c0,0 -37.022,-23.158 0,-62.544c37.022,-39.386 0,-59.157 0,-59.157c0,0 -37.022,-23.158 0,-62.544c37.022,-39.386 0,-59.157 0,-59.157" style="fill:none;stroke:#da7e85;stroke-width:20.83px;"/><path d="M270.751,747.03c0,0 -37.022,-23.158 0,-62.543c37.022,-39.386 0,-59.158 0,-59.158c0,0 -37.022,-23.158 0,-62.544c37.022,-39.385 0,-59.157 0,-59.157c0,0 -37.022,-23.158 0,-62.544c37.022,-39.386 0,-59.157 0,-59.157c0,0 -37.022,-23.158 0,-62.544c37.022,-39.386 0,-59.157 0,-59.157c0,0 -37.022,-23.158 0,-62.544c37.022,-39.386 0,-59.157 0,-59.157c0,0 -37.022,-23.158 0,-62.544c37.022,-39.386 0,-59.157 0,-59.157" style="fill:none;stroke:#7fc2ca;stroke-width:20.83px;"/><path d="M327.519,747.03c0,0 -37.022,-23.158 0,-62.543c37.022,-39.386 0,-59.158 0,-59.158c0,0 -37.022,-23.158 0,-62.544c37.022,-39.385 0,-59.157 0,-59.157c0,0 -37.022,-23.158 0,-62.544c37.022,-39.386 0,-59.157 0,-59.157c0,0 -37.022,-23.158 0,-62.544c37.022,-39.386 0,-59.157 0,-59.157c0,0 -37.022,-23.158 0,-62.544c37.022,-39.386 0,-59.157 0,-59.157c0,0 -37.022,-23.158 0,-62.544c37.022,-39.386 0,-59.157 0,-59.157" style="fill:none;stroke:#54aeb8;stroke-width:20.83px;"/><path d="M380.008,747.03c-0,0 -37.022,-23.158 -0,-62.543c37.022,-39.386 -0,-59.158 -0,-59.158c-0,0 -37.022,-23.158 -0,-62.544c37.022,-39.385 -0,-59.157 -0,-59.157c-0,0 -37.022,-23.158 -0,-62.544c37.022,-39.386 -0,-59.157 -0,-59.157c-0,0 -37.022,-23.158 -0,-62.544c37.022,-39.386 -0,-59.157 -0,-59.157c-0,0 -37.022,-23.158 -0,-62.544c37.022,-39.386 -0,-59.157 -0,-59.157c-0,0 -37.022,-23.158 -0,-62.544c37.022,-39.386 -0,-59.157 -0,-59.157" style="fill:none;stroke:#2e9ca9;stroke-width:20.83px;"/><path d="M438.16,747.03c0,0 -37.022,-23.158 0,-62.543c37.022,-39.386 0,-59.158 0,-59.158c0,0 -37.022,-23.158 0,-62.544c37.022,-39.385 0,-59.157 0,-59.157c0,0 -37.022,-23.158 0,-62.544c37.022,-39.386 0,-59.157 0,-59.157c0,0 -37.022,-23.158 0,-62.544c37.022,-39.386 0,-59.157 0,-59.157c0,0 -37.022,-23.158 0,-62.544c37.022,-39.386 0,-59.157 0,-59.157c0,0 -37.022,-23.158 0,-62.544c37.022,-39.386 0,-59.157 0,-59.157" style="fill:none;stroke:#2196a4;stroke-width:20.83px;"/><path d="M494.928,747.03c-0,0 -37.022,-23.158 -0,-62.543c37.022,-39.386 -0,-59.158 -0,-59.158c-0,0 -37.022,-23.158 -0,-62.544c37.022,-39.385 -0,-59.157 -0,-59.157c-0,0 -37.022,-23.158 -0,-62.544c37.022,-39.386 -0,-59.157 -0,-59.157c-0,0 -37.022,-23.158 -0,-62.544c37.022,-39.386 -0,-59.157 -0,-59.157c-0,0 -37.022,-23.158 -0,-62.544c37.022,-39.386 -0,-59.157 -0,-59.157c-0,0 -37.022,-23.158 -0,-62.544c37.022,-39.386 -0,-59.157 -0,-59.157" style="fill:none;stroke:#008696;stroke-width:20.83px;"/></svg>