<?xml version="1.0" encoding="UTF-8" standalone="no"?><!DOCTYPE svg PUBLIC "-//W3C//DTD SVG 1.1//EN" "http://www.w3.org/Graphics/SVG/1.1/DTD/svg11.dtd"><svg width="100%" height="100%" viewBox="0 0 2217 3200" version="1.1" xmlns="http://www.w3.org/2000/svg" xmlns:xlink="http://www.w3.org/1999/xlink" xml:space="preserve" xmlns:serif="http://www.serif.com/" style="fill-rule:evenodd;clip-rule:evenodd;stroke-linecap:round;stroke-linejoin:round;stroke-miterlimit:1.5;"><rect x="-482.646" y="-703.275" width="8279.12" height="4383.96" style="fill:#fcfbf3;"/><path d="M178.058,3112.62c0,0 -154.258,-96.492 0,-260.596c154.259,-164.108 0,-246.492 0,-246.492c0,0.001 -154.258,-96.491 0,-260.599c154.259,-164.105 0,-246.488 0,-246.488c0,0 -154.258,-96.492 0,-260.6c154.259,-164.108 0,-246.487 0,-246.487c0,-0 -154.258,-96.492 0,-260.6c154.259,-164.109 0,-246.488 0,-246.488c0,0 -154.258,-96.492 0,-260.6c154.259,-164.108 0,-246.487 0,-246.487c0,-0 -154.258,-96.492 0,-260.6c154.259,-164.109 0,-246.488 0,-246.488" style="fill:none;stroke:#c63944;stroke-width:86.79px;"/><path d="M420.363,3112.62c-0,0 -154.263,-96.492 -0,-260.596c154.258,-164.108 -0,-246.492 -0,-246.492c-0,0.001 -154.263,-96.491 -0,-260.599c154.258,-164.105 -0,-246.488 -0,-246.488c-0,0 -154.263,-96.492 -0,-260.6c154.258,-164.108 -0,-246.487 -0,-246.487c-0,-0 -154.263,-96.492 -0,-260.6c154.258,-164.109 -0,-246.488 -0,-246.488c-0,0 -154.263,-96.492 -0,-260.6c154.258,-164.108 -0,-246.487 -0,-246.487c-0,-0 -154.263,-96.492 -0,-260.6c154.258,-164.109 -0,-246.488 -0,-246.488" style="fill:none;stroke:#cd515b;stroke-width:86.79px;"/><path d="M656.892,3112.62c-0,0 -154.259,-96.492 -0,-260.596c154.258,-164.108 -0,-246.492 -0,-246.492c-0,0.001 -154.259,-96.491 -0,-260.599c154.258,-164.105 -0,-246.488 -0,-246.488c-0,0 -154.259,-96.492 -0,-260.6c154.258,-164.108 -0,-246.487 -0,-246.487c-0,-0 -154.259,-96.492 -0,-260.6c154.258,-164.109 -0,-246.488 -0,-246.488c-0,0 -154.259,-96.492 -0,-260.6c154.258,-164.108 -0,-246.487 -0,-246.487c-0,-0 -154.259,-96.492 -0,-260.6c154.258,-164.109 -0,-246.488 -0,-246.488" style="fill:none;stroke:#d56d76;stroke-width:86.79px;"/><path d="M885.829,3112.62c0,0 -154.258,-96.492 0,-260.596c154.259,-164.108 0,-246.492 0,-246.492c0,0.001 -154.258,-96.491 0,-260.599c154.259,-164.105 0,-246.488 0,-246.488c0,0 -154.258,-96.492 0,-260.6c154.259,-164.108 0,-246.487 0,-246.487c0,-0 -154.258,-96.492 0,-260.6c154.259,-164.109 0,-246.488 0,-246.488c0,0 -154.258,-96.492 0,-260.6c154.259,-164.108 0,-246.487 0,-246.487c0,-0 -154.258,-96.492 0,-260.6c154.259,-164.109 0,-246.488 0,-246.488" style="fill:none;stroke:#da7e85;stroke-width:86.79px;"/><path d="M1128.13,3112.62c0,0 -154.258,-96.492 0,-260.596c154.258,-164.108 0,-246.492 0,-246.492c0,0.001 -154.258,-96.491 0,-260.599c154.258,-164.105 0,-246.488 0,-246.488c0,0 -154.258,-96.492 0,-260.6c154.258,-164.108 0,-246.487 0,-246.487c0,-0 -154.258,-96.492 0,-260.6c154.258,-164.109 0,-246.488 0,-246.488c0,0 -154.258,-96.492 0,-260.6c154.258,-164.108 0,-246.487 0,-246.487c0,-0 -154.258,-96.492 0,-260.6c154.258,-164.109 0,-246.488 0,-246.488" style="fill:none;stroke:#7fc2ca;stroke-width:86.79px;"/><path d="M1364.66,3112.62c-0,0 -154.259,-96.492 -0,-260.596c154.258,-164.108 -0,-246.492 -0,-246.492c-0,0.001 -154.259,-96.491 -0,-260.599c154.258,-164.105 -0,-246.488 -0,-246.488c-0,0 -154.259,-96.492 -0,-260.6c154.258,-164.108 -0,-246.487 -0,-246.487c-0,-0 -154.259,-96.492 -0,-260.6c154.258,-164.109 -0,-246.488 -0,-246.488c-0,0 -154.259,-96.492 -0,-260.6c154.258,-164.108 -0,-246.487 -0,-246.487c-0,-0 -154.259,-96.492 -0,-260.6c154.258,-164.109 -0,-246.488 -0,-246.488" style="fill:none;stroke:#54aeb8;stroke-width:86.79px;"/><path d="M1583.37,3112.62c-0,0 -154.259,-96.492 -0,-260.596c154.258,-164.108 -0,-246.492 -0,-246.492c-0,0.001 -154.259,-96.491 -0,-260.599c154.258,-164.105 -0,-246.488 -0,-246.488c-0,0 -154.259,-96.492 -0,-260.6c154.258,-164.108 -0,-246.487 -0,-246.487c-0,-0 -154.259,-96.492 -0,-260.6c154.258,-164.109 -0,-246.488 -0,-246.488c-0,0 -154.259,-96.492 -0,-260.6c154.258,-164.108 -0,-246.487 -0,-246.487c-0,-0 -154.259,-96.492 -0,-260.6c154.258,-164.109 -0,-246.488 -0,-246.488" style="fill:none;stroke:#2e9ca9;stroke-width:86.79px;"/><path d="M1825.67,3112.62c-0,0 -154.259,-96.492 -0,-260.596c154.258,-164.108 -0,-246.492 -0,-246.492c-0,0.001 -154.259,-96.491 -0,-260.599c154.258,-164.105 -0,-246.488 -0,-246.488c-0,0 -154.259,-96.492 -0,-260.6c154.258,-164.108 -0,-246.487 -0,-246.487c-0,-0 -154.259,-96.492 -0,-260.6c154.258,-164.109 -0,-246.488 -0,-246.488c-0,0 -154.259,-96.492 -0,-260.6c154.258,-164.108 -0,-246.487 -0,-246.487" style="fill:none;stroke:#2196a4;stroke-width:86.79px;"/><path d="M2062.2,3112.62c0,0 -154.258,-96.492 0,-260.596c154.258,-164.108 0,-246.492 0,-246.492c0,0.001 -154.258,-96.491 0,-260.599c154.258,-164.105 0,-246.488 0,-246.488c0,0 -154.258,-96.492 0,-260.6c154.258,-164.108 0,-246.487 0,-246.487c0,-0 -154.258,-96.492 0,-260.6c154.258,-164.109 0,-246.488 0,-246.488c0,0 -154.258,-96.492 0,-260.6c154.258,-164.108 0,-246.487 0,-246.487" style="fill:none;stroke:#008696;stroke-width:86.79px;"/><circle cx="1964.26" cy="249.745" r="158.433" style="fill:#008696;"/></svg>