<?xml version="1.0" encoding="UTF-8" standalone="no"?><!DOCTYPE svg PUBLIC "-//W3C//DTD SVG 1.1//EN" "http://www.w3.org/Graphics/SVG/1.1/DTD/svg11.dtd"><svg width="100%" height="100%" viewBox="0 0 1749 638" version="1.1" xmlns="http://www.w3.org/2000/svg" xmlns:xlink="http://www.w3.org/1999/xlink" xml:space="preserve" xmlns:serif="http://www.serif.com/" style="fill-rule:evenodd;clip-rule:evenodd;stroke-linecap:round;stroke-linejoin:round;stroke-miterlimit:1.5;"><rect x="-115.835" y="-168.786" width="1986.99" height="1052.15" style="fill:#fcfbf3;"/><path d="M11.868,35.254c0,-0 20.506,-37.022 55.381,-0c34.875,37.022 52.382,-0 52.382,-0c0,-0 20.506,-37.022 55.381,-0c34.875,37.022 52.382,-0 52.382,-0c0,-0 20.506,-37.022 55.381,-0c34.875,37.022 52.382,-0 52.382,-0c0,-0 20.506,-37.022 55.381,-0c34.875,37.022 52.382,-0 52.382,-0c0,-0 20.506,-37.022 55.381,-0c34.875,37.022 52.382,-0 52.382,-0c0,-0 20.506,-37.022 55.381,-0c34.875,37.022 52.382,-0 52.382,-0c0,-0 20.506,-37.022 55.381,-0c34.875,37.022 52.382,-0 52.382,-0c0,-0 20.506,-37.022 55.381,-0c34.875,37.022 52.382,-0 52.382,-0c0,-0 20.506,-37.022 55.381,-0c34.875,37.022 52.382,-0 52.382,-0c0,-0 20.506,-37.022 55.381,-0c34.875,37.022 52.382,-0 52.382,-0c-0,-0 20.506,-37.022 55.381,-0c34.875,37.022 52.382,-0 52.382,-0c-0,-0 20.506,-37.022 55.381,-0c34.875,37.022 52.382,-0 52.382,-0c-0,-0 20.506,-37.022 55.381,-0c34.875,37.022 52.382,-0 52.382,-0c-0,-0 20.506,-37.022 55.381,-0c34.875,37.022 52.382,-0 52.382,-0c-0,-0 20.506,-37.022 55.381,-0c34.875,37.022 52.382,-0 52.382,-0c-0,-0 20.506,-37.022 55.381,-0c34.875,37.022 52.382,-0 52.382,-0" style="fill:none;stroke:#008696;stroke-width:20.83px;"/><path d="M11.868,35.254c0,-0 20.506,-37.022 55.381,-0c34.875,37.022 52.382,-0 52.382,-0c0,-0 20.506,-37.022 55.381,-0" style="fill:none;stroke:#008696;stroke-width:20.83px;"/><path d="M11.868,97.392c0,-0 20.506,-37.022 55.381,-0c34.875,37.022 52.382,-0 52.382,-0c0,-0 20.506,-37.022 55.381,-0c34.875,37.022 52.382,-0 52.382,-0c0,-0 20.506,-37.022 55.381,-0c34.875,37.022 52.382,-0 52.382,-0c0,-0 20.506,-37.022 55.381,-0c34.875,37.022 52.382,-0 52.382,-0c0,-0 20.506,-37.022 55.381,-0c34.875,37.022 52.382,-0 52.382,-0c0,-0 20.506,-37.022 55.381,-0c34.875,37.022 52.382,-0 52.382,-0c0,-0 20.506,-37.022 55.381,-0c34.875,37.022 52.382,-0 52.382,-0c0,-0 20.506,-37.022 55.381,-0c34.875,37.022 52.382,-0 52.382,-0c0,-0 20.506,-37.022 55.381,-0c34.875,37.022 52.382,-0 52.382,-0c0,-0 20.506,-37.022 55.381,-0c34.875,37.022 52.382,-0 52.382,-0c-0,-0 20.506,-37.022 55.381,-0c34.875,37.022 52.382,-0 52.382,-0c-0,-0 20.506,-37.022 55.381,-0c34.875,37.022 52.382,-0 52.382,-0c-0,-0 20.506,-37.022 55.381,-0c34.875,37.022 52.382,-0 52.382,-0c-0,-0 20.506,-37.022 55.381,-0c34.875,37.022 52.382,-0 52.382,-0c-0,-0 20.506,-37.022 55.381,-0c34.875,37.022 52.382,-0 52.382,-0c-0,-0 20.506,-37.022 55.381,-0c34.875,37.022 52.382,-0 52.382,-0" style="fill:none;stroke:#359fac;stroke-width:20.83px;"/><path d="M11.868,158.997c0,-0 20.506,-37.022 55.381,-0c34.875,37.022 52.382,-0 52.382,-0c0,-0 20.506,-37.022 55.381,-0c34.875,37.022 52.382,-0 52.382,-0c0,-0 20.506,-37.022 55.381,-0c34.875,37.022 52.382,-0 52.382,-0c0,-0 20.506,-37.022 55.381,-0c34.875,37.022 52.382,-0 52.382,-0c0,-0 20.506,-37.022 55.381,-0c34.875,37.022 52.382,-0 52.382,-0c0,-0 20.506,-37.022 55.381,-0c34.875,37.022 52.382,-0 52.382,-0c0,-0 20.506,-37.022 55.381,-0c34.875,37.022 52.382,-0 52.382,-0c0,-0 20.506,-37.022 55.381,-0c34.875,37.022 52.382,-0 52.382,-0c0,-0 20.506,-37.022 55.381,-0c34.875,37.022 52.382,-0 52.382,-0c0,-0 20.506,-37.022 55.381,-0c34.875,37.022 52.382,-0 52.382,-0c-0,-0 20.506,-37.022 55.381,-0c34.875,37.022 52.382,-0 52.382,-0c-0,-0 20.506,-37.022 55.381,-0c34.875,37.022 52.382,-0 52.382,-0c-0,-0 20.506,-37.022 55.381,-0c34.875,37.022 52.382,-0 52.382,-0c-0,-0 20.506,-37.022 55.381,-0c34.875,37.022 52.382,-0 52.382,-0c-0,-0 20.506,-37.022 55.381,-0c34.875,37.022 52.382,-0 52.382,-0c-0,-0 20.506,-37.022 55.381,-0c34.875,37.022 52.382,-0 52.382,-0" style="fill:none;stroke:#46a7b3;stroke-width:20.83px;"/><path d="M11.868,219.259c0,-0 20.506,-37.022 55.381,-0c34.875,37.022 52.382,-0 52.382,-0c0,-0 20.506,-37.022 55.381,-0c34.875,37.022 52.382,-0 52.382,-0c0,-0 20.506,-37.022 55.381,-0c34.875,37.022 52.382,-0 52.382,-0c0,-0 20.506,-37.022 55.381,-0c34.875,37.022 52.382,-0 52.382,-0c0,-0 20.506,-37.022 55.381,-0c34.875,37.022 52.382,-0 52.382,-0c0,-0 20.506,-37.022 55.381,-0c34.875,37.022 52.382,-0 52.382,-0c0,-0 20.506,-37.022 55.381,-0c34.875,37.022 52.382,-0 52.382,-0c0,-0 20.506,-37.022 55.381,-0c34.875,37.022 52.382,-0 52.382,-0c0,-0 20.506,-37.022 55.381,-0c34.875,37.022 52.382,-0 52.382,-0c0,-0 20.506,-37.022 55.381,-0c34.875,37.022 52.382,-0 52.382,-0c-0,-0 20.506,-37.022 55.381,-0c34.875,37.022 52.382,-0 52.382,-0c-0,-0 20.506,-37.022 55.381,-0c34.875,37.022 52.382,-0 52.382,-0c-0,-0 20.506,-37.022 55.381,-0c34.875,37.022 52.382,-0 52.382,-0c-0,-0 20.506,-37.022 55.381,-0c34.875,37.022 52.382,-0 52.382,-0c-0,-0 20.506,-37.022 55.381,-0c34.875,37.022 52.382,-0 52.382,-0c-0,-0 20.506,-37.022 55.381,-0c34.875,37.022 52.382,-0 52.382,-0" style="fill:none;stroke:#67b7c0;stroke-width:20.83px;"/><path d="M11.868,281.215c0,0 20.506,-37.022 55.381,0c34.875,37.022 52.382,0 52.382,0c0,0 20.506,-37.022 55.381,0c34.875,37.022 52.382,0 52.382,0c0,0 20.506,-37.022 55.381,0c34.875,37.022 52.382,0 52.382,0c0,0 20.506,-37.022 55.381,0c34.875,37.022 52.382,0 52.382,0c0,0 20.506,-37.022 55.381,0c34.875,37.022 52.382,0 52.382,0c0,0 20.506,-37.022 55.381,0c34.875,37.022 52.382,0 52.382,0c0,0 20.506,-37.022 55.381,0c34.875,37.022 52.382,0 52.382,0c0,0 20.506,-37.022 55.381,0c34.875,37.022 52.382,0 52.382,0c0,0 20.506,-37.022 55.381,0c34.875,37.022 52.382,0 52.382,0c0,0 20.506,-37.022 55.381,0c34.875,37.022 52.382,0 52.382,0c-0,0 20.506,-37.022 55.381,0c34.875,37.022 52.382,0 52.382,0c-0,0 20.506,-37.022 55.381,0c34.875,37.022 52.382,0 52.382,0c-0,0 20.506,-37.022 55.381,0c34.875,37.022 52.382,0 52.382,0c-0,0 20.506,-37.022 55.381,0c34.875,37.022 52.382,0 52.382,0c-0,0 20.506,-37.022 55.381,0c34.875,37.022 52.382,0 52.382,0c-0,0 20.506,-37.022 55.381,0c34.875,37.022 52.382,0 52.382,0" style="fill:none;stroke:#add8dd;stroke-width:20.83px;"/><path d="M11.868,350.501c0,-0 20.506,-37.022 55.381,-0c34.875,37.022 52.382,-0 52.382,-0c0,-0 20.506,-37.022 55.381,-0c34.875,37.022 52.382,-0 52.382,-0c0,-0 20.506,-37.022 55.381,-0c34.875,37.022 52.382,-0 52.382,-0c0,-0 20.506,-37.022 55.381,-0c34.875,37.022 52.382,-0 52.382,-0c0,-0 20.506,-37.022 55.381,-0c34.875,37.022 52.382,-0 52.382,-0c0,-0 20.506,-37.022 55.381,-0c34.875,37.022 52.382,-0 52.382,-0c0,-0 20.506,-37.022 55.381,-0c34.875,37.022 52.382,-0 52.382,-0c0,-0 20.506,-37.022 55.381,-0c34.875,37.022 52.382,-0 52.382,-0c0,-0 20.506,-37.022 55.381,-0c34.875,37.022 52.382,-0 52.382,-0c0,-0 20.506,-37.022 55.381,-0c34.875,37.022 52.382,-0 52.382,-0c-0,-0 20.506,-37.022 55.381,-0c34.875,37.022 52.382,-0 52.382,-0c-0,-0 20.506,-37.022 55.381,-0c34.875,37.022 52.382,-0 52.382,-0c-0,-0 20.506,-37.022 55.381,-0c34.875,37.022 52.382,-0 52.382,-0c-0,-0 20.506,-37.022 55.381,-0c34.875,37.022 52.382,-0 52.382,-0c-0,-0 20.506,-37.022 55.381,-0c34.875,37.022 52.382,-0 52.382,-0c-0,-0 20.506,-37.022 55.381,-0c34.875,37.022 52.382,-0 52.382,-0" style="fill:none;stroke:#ebb9bd;stroke-width:20.83px;"/><path d="M11.868,414.477c0,0 20.506,-37.022 55.381,0c34.875,37.022 52.382,0 52.382,0c0,0 20.506,-37.022 55.381,0c34.875,37.022 52.382,0 52.382,0c0,0 20.506,-37.022 55.381,0c34.875,37.022 52.382,0 52.382,0c0,0 20.506,-37.022 55.381,0c34.875,37.022 52.382,0 52.382,0c0,0 20.506,-37.022 55.381,0c34.875,37.022 52.382,0 52.382,0c0,0 20.506,-37.022 55.381,0c34.875,37.022 52.382,0 52.382,0c0,0 20.506,-37.022 55.381,0c34.875,37.022 52.382,0 52.382,0c0,0 20.506,-37.022 55.381,0c34.875,37.022 52.382,0 52.382,0c0,0 20.506,-37.022 55.381,0c34.875,37.022 52.382,0 52.382,0c0,0 20.506,-37.022 55.381,0c34.875,37.022 52.382,0 52.382,0c-0,0 20.506,-37.022 55.381,0c34.875,37.022 52.382,0 52.382,0c-0,0 20.506,-37.022 55.381,0c34.875,37.022 52.382,0 52.382,0c-0,0 20.506,-37.022 55.381,0c34.875,37.022 52.382,0 52.382,0c-0,0 20.506,-37.022 55.381,0c34.875,37.022 52.382,0 52.382,0c-0,0 20.506,-37.022 55.381,0c34.875,37.022 52.382,0 52.382,0c-0,0 20.506,-37.022 55.381,0c34.875,37.022 52.382,0 52.382,0" style="fill:none;stroke:#e09298;stroke-width:20.83px;"/><path d="M11.868,480.763c0,-0 20.506,-37.023 55.381,-0c34.875,37.022 52.382,-0 52.382,-0c0,-0 20.506,-37.023 55.381,-0c34.875,37.022 52.382,-0 52.382,-0c0,-0 20.506,-37.023 55.381,-0c34.875,37.022 52.382,-0 52.382,-0c0,-0 20.506,-37.023 55.381,-0c34.875,37.022 52.382,-0 52.382,-0c0,-0 20.506,-37.023 55.381,-0c34.875,37.022 52.382,-0 52.382,-0c0,-0 20.506,-37.023 55.381,-0c34.875,37.022 52.382,-0 52.382,-0c0,-0 20.506,-37.023 55.381,-0c34.875,37.022 52.382,-0 52.382,-0c0,-0 20.506,-37.023 55.381,-0c34.875,37.022 52.382,-0 52.382,-0c0,-0 20.506,-37.023 55.381,-0c34.875,37.022 52.382,-0 52.382,-0c0,-0 20.506,-37.023 55.381,-0c34.875,37.022 52.382,-0 52.382,-0c-0,-0 20.506,-37.023 55.381,-0c34.875,37.022 52.382,-0 52.382,-0c-0,-0 20.506,-37.023 55.381,-0c34.875,37.022 52.382,-0 52.382,-0c-0,-0 20.506,-37.023 55.381,-0c34.875,37.022 52.382,-0 52.382,-0c-0,-0 20.506,-37.023 55.381,-0c34.875,37.022 52.382,-0 52.382,-0c-0,-0 20.506,-37.023 55.381,-0c34.875,37.022 52.382,-0 52.382,-0c-0,-0 20.506,-37.023 55.381,-0c34.875,37.022 52.382,-0 52.382,-0" style="fill:none;stroke:#d3656d;stroke-width:20.83px;"/><path d="M11.868,542.367c0,0 20.506,-37.022 55.381,0c34.875,37.022 52.382,0 52.382,0c0,0 20.506,-37.022 55.381,0c34.875,37.022 52.382,0 52.382,0c0,0 20.506,-37.022 55.381,0c34.875,37.022 52.382,0 52.382,0c0,0 20.506,-37.022 55.381,0c34.875,37.022 52.382,0 52.382,0c0,0 20.506,-37.022 55.381,0c34.875,37.022 52.382,0 52.382,0c0,0 20.506,-37.022 55.381,0c34.875,37.022 52.382,0 52.382,0c0,0 20.506,-37.022 55.381,0c34.875,37.022 52.382,0 52.382,0c0,0 20.506,-37.022 55.381,0c34.875,37.022 52.382,0 52.382,0c0,0 20.506,-37.022 55.381,0c34.875,37.022 52.382,0 52.382,0c0,0 20.506,-37.022 55.381,0c34.875,37.022 52.382,0 52.382,0c-0,0 20.506,-37.022 55.381,0c34.875,37.022 52.382,0 52.382,0c-0,0 20.506,-37.022 55.381,0c34.875,37.022 52.382,0 52.382,0c-0,0 20.506,-37.022 55.381,0c34.875,37.022 52.382,0 52.382,0c-0,0 20.506,-37.022 55.381,0c34.875,37.022 52.382,0 52.382,0c-0,0 20.506,-37.022 55.381,0c34.875,37.022 52.382,0 52.382,0c-0,0 20.506,-37.022 55.381,0c34.875,37.022 52.382,0 52.382,0" style="fill:none;stroke:#cc4e58;stroke-width:20.83px;"/><path d="M11.868,602.629c0,0 20.506,-37.022 55.381,0c34.875,37.022 52.382,0 52.382,0c0,0 20.506,-37.022 55.381,0c34.875,37.022 52.382,0 52.382,0c0,0 20.506,-37.022 55.381,0c34.875,37.022 52.382,0 52.382,0c0,0 20.506,-37.022 55.381,0c34.875,37.022 52.382,0 52.382,0c0,0 20.506,-37.022 55.381,0c34.875,37.022 52.382,0 52.382,0c0,0 20.506,-37.022 55.381,0c34.875,37.022 52.382,0 52.382,0c0,0 20.506,-37.022 55.381,0c34.875,37.022 52.382,0 52.382,0c0,0 20.506,-37.022 55.381,0c34.875,37.022 52.382,0 52.382,0c0,0 20.506,-37.022 55.381,0c34.875,37.022 52.382,0 52.382,0c0,0 20.506,-37.022 55.381,0c34.875,37.022 52.382,0 52.382,0c-0,0 20.506,-37.022 55.381,0c34.875,37.022 52.382,0 52.382,0c-0,0 20.506,-37.022 55.381,0c34.875,37.022 52.382,0 52.382,0c-0,0 20.506,-37.022 55.381,0c34.875,37.022 52.382,0 52.382,0c-0,0 20.506,-37.022 55.381,0c34.875,37.022 52.382,0 52.382,0c-0,0 20.506,-37.022 55.381,0c34.875,37.022 52.382,0 52.382,0c-0,0 20.506,-37.022 55.381,0c34.875,37.022 52.382,0 52.382,0" style="fill:none;stroke:#c63944;stroke-width:20.83px;"/></svg>